<?xml version="1.0" encoding="UTF-8"?>
<svg height="16px" viewBox="0 0 16 16" width="16px" xmlns="http://www.w3.org/2000/svg">
  <g fill="#000000">
    <path d="M7.48,5.01c.07-.05.14-.1.21-.16l1.97-1.45V0s-3.06,2.25-4.34,3.19c-.91.67-1.48,1.15-1.8,1.82h3.96ZM9.04,5.01c1.44-1.06,3.75-2.76,3.75-2.76v2.76h-3.75ZM12.55,10.99s-.66,1.08-1.47,1.69c-1.43,1.07-4.74,3.32-4.74,3.32v-5.01h6.21ZM3.2,10.99h2.37v1.13l-2.37,1.63v-2.76Z" fill-opacity="0.34902"/>
    <path d="M3,6c-1.11,0-2,.89-2,2s.89,2,2,2,2-.89,2-2-.89-2-2-2ZM8,6c-1.11,0-2,.89-2,2s.89,2,2,2,2-.89,2-2-.89-2-2-2ZM13,6c-1.11,0-2,.89-2,2s.89,2,2,2,2-.89,2-2-.89-2-2-2Z"/>
  </g>
</svg>
